<?xml version="1.0" encoding="utf-8"?>
<!-- Generator: Adobe Illustrator 16.0.0, SVG Export Plug-In . SVG Version: 6.00 Build 0)  -->
<!DOCTYPE svg PUBLIC "-//W3C//DTD SVG 1.1//EN" "http://www.w3.org/Graphics/SVG/1.1/DTD/svg11.dtd">
<svg version="1.1" id="Ebene_1" xmlns="http://www.w3.org/2000/svg" xmlns:xlink="http://www.w3.org/1999/xlink" x="0px" y="0px"
	 width="612px" height="792px" viewBox="0 0 612 792" enable-background="new 0 0 612 792" xml:space="preserve">
<g>
	<path fill-rule="evenodd" clip-rule="evenodd" d="M584.729,396.638c0,125.076,0.003,250.151-0.077,375.228
		c0,0.644-1.173,1.852-1.799,1.852c-178.096,0.081-356.191,0.081-534.287-0.005c-0.658-0.001-1.893-1.278-1.894-1.96
		c-0.083-250.222-0.083-500.444,0-750.666c0-0.679,1.239-1.953,1.9-1.953c178.025-0.086,356.05-0.086,534.075,0.004
		c0.693,0,1.994,1.345,1.994,2.062C584.733,146.346,584.729,271.492,584.729,396.638z M466.695,157.118
		c0-1.621,0.056-3.246-0.015-4.864c-0.07-1.601-0.223-3.201-0.413-4.792c-2.486-20.707-11.262-38.238-28.004-50.783
		c-7.332-5.494-16.058-9.395-24.597-12.945c-10.897-4.531-22.745-4.642-33.851-1.66c-8.647,2.322-16.932,6.844-24.625,11.604
		c-6.151,3.806-11.859,8.875-16.465,14.455c-3.404,4.125-13.015,7.33-16.836,3.542c-3.605-3.572-6.825-7.553-10.586-10.943
		c-6.924-6.243-13.847-12.552-21.318-18.096c-3.786-2.81-8.721-4.127-13.225-5.895c-2.531-0.993-5.234-1.556-7.874-2.262
		c-2.806-0.75-5.607-1.895-8.45-2.032c-3.002-0.145-6.132,0.39-9.063,1.167c-7.664,2.031-15.53,3.68-22.807,6.706
		c-14.482,6.02-25.536,16.483-33.653,29.756c-14.433,23.602-16.565,48.508-6.968,74.481c0.409,1.105-0.381,3.059-1.218,4.155
		c-7.786,10.199-17.212,19.471-23.302,30.58c-18.268,33.321-20.172,68.084-5.443,103.455c1.487,3.572,4.3,6.563,1.393,11.359
		c-10.354,17.085-17.285,35.593-21.475,55.168c-1.848,8.635-4.508,17.093-6.625,25.675c-0.452,1.831-0.15,3.849-0.195,5.78
		c5.825-1.248,2.5,3.544,2.421,4.633c-1.25,17.472-2.622,34.944-4.551,52.352c-0.683,6.164,0.32,12.383-4.986,18.239
		c-8.25,9.104-13.653,20.366-16.073,32.733c-0.327,1.673-0.689,3.517-1.635,4.857c-2.771,3.929-6.826,7.242-8.582,11.532
		c-3.071,7.5-4.929,15.515-7.023,23.386c-0.719,2.702-1.228,5.725-0.77,8.419c0.89,5.237,2.242,10.445,3.954,15.478
		c1.365,4.012,3.439,7.803,5.407,11.583c1.3,2.498,3.609,4.622,4.351,7.23c2.22,7.809,3.167,16.044,5.984,23.6
		c2.767,7.42,7.234,14.203,10.921,21.283c1.578,3.031,6.065,4.635,3.499,9.645c-4.36,8.51-0.473,16.882,2.397,24.715
		c1.284,3.505,5.608,6.193,9.031,8.562c9.806,6.783,20.79,10.509,32.713,11.332c12.136,0.839,23.789-0.891,34.873-6.197
		c2.817-1.349,6.397-3.19,8.983-2.476c4.504,1.244,8.293,4.918,12.765,6.472c11.041,3.837,21.849,2.924,32.387-2.563
		c3.85-2.004,7.173-6.279,12.977-2.268c14.824,10.248,37.136,8.344,51.208-3.346c2.389-1.983,6.147-4.986,8.169-4.293
		c10.368,3.554,20.616,4.353,31.301,2.088c2.628-0.557,5.844-0.596,8.221,0.438c3.768,1.639,6.862,4.776,10.58,6.585
		c14.974,7.286,30.875,9.553,46.719,4.51c9.723-3.094,18.702-8.7,27.77-13.63c10.07-5.477,16.452-19.133,15.26-30.393
		c-0.368-3.475-0.429-7.521,0.995-10.54c3.664-7.768,8.577-14.939,12.34-22.667c3.09-6.344,3.773-14.375,8.079-19.518
		c15.175-18.12,18.941-42.098,8.31-63.099c-1.745-3.445-5.033-6.569-5.499-10.119c-1.612-12.283-4.869-23.802-11.613-34.298
		c-1.546-2.406-3.271-5.324-3.259-7.999c0.058-12.895,0.86-25.783,1.061-38.679c0.305-19.619,0.842-39.256,0.32-58.859
		c-0.452-16.999-5.098-33.255-11.276-49.111c-1.511-3.875-6.018-7.231-2.565-12.615c10.743-16.757,17.104-35.191,18.107-55.056
		c1.524-30.139-5.875-57.583-26.469-80.629c-1.053-1.179-1.568-3.989-0.914-5.366C462.925,184.128,467.236,171.239,466.695,157.118z
		"/>
	<path fill-rule="evenodd" clip-rule="evenodd" fill="#FFFFFF" d="M466.694,157.118c0.542,14.121-3.77,27.01-9.726,39.559
		c-0.654,1.377-0.139,4.187,0.914,5.366c20.594,23.046,27.993,50.49,26.469,80.629c-1.004,19.865-7.364,38.299-18.107,55.056
		c-3.452,5.384,1.055,8.741,2.565,12.615c6.179,15.856,10.824,32.113,11.276,49.111c0.521,19.604-0.016,39.24-0.32,58.859
		c-0.2,12.896-1.003,25.784-1.061,38.679c-0.012,2.675,1.713,5.593,3.259,7.999c6.744,10.496,10.001,22.015,11.613,34.298
		c0.466,3.55,3.754,6.674,5.499,10.119c10.632,21.001,6.865,44.979-8.31,63.099c-4.306,5.143-4.989,13.174-8.079,19.518
		c-3.763,7.728-8.676,14.899-12.34,22.667c-1.424,3.019-1.363,7.065-0.995,10.54c1.192,11.26-5.189,24.916-15.26,30.393
		c-9.067,4.93-18.047,10.536-27.77,13.63c-15.844,5.043-31.745,2.776-46.719-4.51c-3.718-1.809-6.813-4.946-10.58-6.585
		c-2.377-1.033-5.593-0.994-8.221-0.438c-10.685,2.265-20.933,1.466-31.301-2.088c-2.021-0.693-5.78,2.31-8.169,4.293
		c-14.072,11.689-36.385,13.594-51.208,3.346c-5.804-4.012-9.127,0.264-12.977,2.268c-10.538,5.487-21.347,6.4-32.387,2.563
		c-4.472-1.554-8.261-5.228-12.765-6.472c-2.586-0.715-6.167,1.127-8.983,2.476c-11.083,5.307-22.737,7.036-34.873,6.197
		c-11.923-0.823-22.908-4.549-32.713-11.332c-3.423-2.368-7.747-5.057-9.031-8.562c-2.87-7.833-6.757-16.205-2.397-24.715
		c2.567-5.01-1.92-6.613-3.499-9.645c-3.687-7.08-8.154-13.863-10.921-21.283c-2.818-7.556-3.764-15.791-5.984-23.6
		c-0.742-2.608-3.051-4.732-4.351-7.23c-1.967-3.78-4.042-7.571-5.407-11.583c-1.712-5.032-3.064-10.24-3.954-15.478
		c-0.458-2.694,0.051-5.717,0.77-8.419c2.094-7.871,3.952-15.886,7.023-23.386c1.756-4.29,5.811-7.604,8.582-11.532
		c0.946-1.341,1.308-3.185,1.635-4.857c2.419-12.367,7.823-23.629,16.073-32.733c5.306-5.856,4.304-12.075,4.986-18.239
		c1.929-17.407,3.301-34.88,4.551-52.352c0.078-1.089,3.404-5.881-2.421-4.633c0.045-1.932-0.257-3.949,0.195-5.78
		c2.117-8.582,4.777-17.04,6.625-25.675c4.19-19.575,11.121-38.083,21.475-55.168c2.907-4.795,0.094-7.787-1.393-11.359
		c-14.729-35.371-12.824-70.134,5.443-103.455c6.09-11.109,15.516-20.381,23.302-30.58c0.837-1.096,1.627-3.05,1.218-4.155
		c-9.597-25.973-7.465-50.879,6.968-74.481c8.117-13.273,19.171-23.736,33.653-29.756c7.277-3.025,15.143-4.675,22.807-6.706
		c2.931-0.777,6.061-1.311,9.063-1.167c2.843,0.137,5.644,1.282,8.45,2.032c2.639,0.706,5.342,1.269,7.874,2.262
		c4.504,1.768,9.439,3.085,13.225,5.895c7.471,5.544,14.394,11.854,21.318,18.096c3.761,3.39,6.98,7.371,10.586,10.943
		c3.821,3.788,13.432,0.583,16.836-3.542c4.605-5.58,10.313-10.648,16.465-14.455c7.693-4.76,15.978-9.282,24.625-11.604
		c11.105-2.982,22.953-2.871,33.851,1.66c8.539,3.55,17.265,7.451,24.597,12.945c16.742,12.545,25.518,30.077,28.004,50.783
		c0.19,1.591,0.343,3.191,0.413,4.792C466.751,153.873,466.695,155.497,466.694,157.118z M384.564,388.806
		c-0.008-0.338-0.015-0.677-0.021-1.015c-1.928,0.177-5.305-0.08-5.512,0.611c-0.641,2.144-0.647,4.886,0.207,6.935
		c0.654,1.568,2.903,3.298,4.59,3.464c6.619,0.65,13.295,0.884,19.953,0.953c12.794,0.133,25.591,0.103,38.385,0.021
		c4.137-0.026,7.103-1.721,7.197-6.445c0.005-0.214,0.14-0.425,0.214-0.638c0.066,0.182,0.098,0.386,0.204,0.54
		c0.487,0.702,0.996,1.39,1.496,2.083c0.766-0.937,2.317-2.016,2.178-2.789c-1.976-10.943-3.146-22.188-6.624-32.659
		c-3.418-10.288-9.234-19.779-14.007-29.615c-0.114-0.234-0.334-0.416-0.504-0.622c-0.101,0.162-0.22,0.315-0.297,0.487
		c-0.127,0.282-0.227,0.577-0.338,0.866c-0.034-0.347-0.181-0.729-0.087-1.035c0.681-2.198,1.144-4.516,2.169-6.546
		c5.034-9.966,10.232-19.85,15.35-29.774c1.396-2.707,2.986-5.358,3.98-8.211c0.853-2.448,0.943-5.157,1.438-7.737
		c0.875-4.559,2.338-9.083,2.55-13.668c0.206-4.443-0.506-9.019-1.453-13.398c-1.007-4.653-2.603-9.201-4.223-13.693
		c-4.537-12.577-14.402-21.246-22.882-30.941c-2.528-2.891-5.023-5.944-6.787-9.313c-0.85-1.623-0.547-4.398,0.229-6.232
		c3.883-9.186,8.104-18.229,12.178-27.335c0.398-0.889,0.779-1.844,0.871-2.797c0.129-1.341-0.034-2.709-0.04-4.065
		c-0.001-0.288,0.138-0.577,0.213-0.865c0.069,0.534,0.111,1.074,0.224,1.599c0.05,0.234,0.24,0.438,0.367,0.655
		c0.229-0.231,0.586-0.423,0.671-0.698c3.42-11.163,2.067-22.014-4.888-31.112c-10.8-14.127-25.222-20.609-43.373-17.112
		c-13.193,2.542-23.152,9.826-31.437,20.063c-3.722,4.599-7.374,10.959-12.302,12.473c-7.12,2.188-15.375,0.871-23.138,0.699
		c-3.679-0.082-7.458-0.563-10.983-1.583c-7.713-2.229-9.368-9.671-12.898-15.604c-9.036-15.184-29.436-28.85-51.42-21.399
		c-7.734,2.621-15.884,5.957-21.955,11.168c-16.425,14.099-20.453,36.075-10.619,55.414c4.885,9.606,6.66,18.512-0.289,27.364
		c-4.198,5.348-9.115,10.166-13.98,14.946c-13.7,13.46-22.479,29.363-23.904,48.713c-1.244,16.889,1.959,33.021,10.005,48.031
		c3.174,5.92,7.503,11.758,4.189,18.78c-3.699,7.84-8.46,15.175-12.255,22.976c-4.345,8.931-8.401,18.027-12.019,27.272
		c-1.216,3.108-1.022,6.912-0.809,10.357c0.074,1.196,2.061,3.123,3.328,3.257c7.977,0.838,15.989,1.477,24.004,1.781
		c12.342,0.469,24.696,0.772,37.044,0.769c2.558-0.001,5.696-1.038,7.498-2.733c1.58-1.486,1.661-4.565,2.404-6.94
		c-1.552-0.258-3.106-0.747-4.657-0.735c-8.065,0.06-16.154,0.689-24.189,0.258c-7.066-0.38-13.068-4.351-14.976-11.032
		c-1.609-5.633-1.681-12.255-0.402-17.987c1.018-4.563,5.091-8.448,7.828-12.621c3.604-5.495,7.644-10.313,14.547-12.018
		c1.495-0.369,3.72-3.252,3.41-4.365c-0.753-2.708-2.356-5.512-4.391-7.478c-25.041-24.2-25.058-55.643-13.585-80.91
		c3.167-6.975,9.619-12.494,14.761-18.512c1.322-1.548,4.172-2.085,4.959-3.735c1.555-3.264,1.833-7.116,3.23-10.479
		c2.566-6.178,5.679-12.128,8.311-18.281c0.902-2.108,2.251-5.733,1.353-6.639c-9.33-9.412-10.482-21.646-9.693-33.28
		c0.673-9.919,7.163-18.219,16.41-23.312c8.937-4.922,18.219-4.22,27.282-0.697c11.074,4.305,16.899,13.188,19.654,24.38
		c0.534,2.169,0.407,5.48,1.76,6.282c3.905,2.315,8.293,4.103,12.715,5.163c3.472,0.832,7.276,0.268,10.933,0.332
		c11.617,0.204,23.25,0.818,34.836,0.316c2.727-0.118,6.81-3.524,7.649-6.23c2.654-8.559,6.781-15.773,14.124-20.917
		c7.44-5.212,15.963-6.993,24.765-5.719c10.015,1.449,15.837,8.997,21.019,16.767c8.236,12.351,6.189,32.026-5.606,42.152
		c-5.812,4.988-5.201,8.634-1.957,13.87c0.964,1.557,1.359,3.454,2.123,5.146c3.915,8.675,1.889,19.687,10.548,26.542
		c1.464,1.16,2.429,3.024,3.434,4.679c8.348,13.74,12.684,28.755,9.797,44.568c-1.79,9.8-5.708,19.553-10.455,28.366
		c-3.932,7.298-10.954,12.873-15.587,19.885c-1.519,2.296-7.132,6.517-0.465,10.184c1.921,1.056,4.156,2.297,5.195,4.07
		c5.556,9.489,12.399,18.391,12.84,30.196c0.277,7.438-7.135,16.24-14.199,16.127C402.842,388.694,393.702,388.806,384.564,388.806z
		 M169.796,418.846c-9.76,0-10.29,0.419-10.829,5.979c-0.679,6.99-1.781,13.938-2.555,20.92c-0.298,2.687-0.025,5.435-0.313,8.123
		c-0.618,5.787-1.523,11.545-2.117,17.334c-0.242,2.364,0.277,4.813-0.015,7.166c-0.364,2.933-1.572,5.78-1.777,8.709
		c-0.671,9.59-3.246,18.052-10.822,24.789c-6.915,6.148-9.978,14.133-9.839,21.031c0.055,2.757-0.724,5.526-1.091,8.294
		c-0.852,6.419-2.596,12.893-2.239,19.246c0.292,5.184,2.746,10.388,4.948,15.264c1.125,2.492,3.539,5.67,5.832,6.105
		c4.937,0.938,10.417-0.661,15.223,0.557c5.792,1.469,11.209,4.601,16.6,7.377c2.643,1.361,5.363,3.153,7.164,5.445
		c3.324,4.229,5.255,9.804,9.147,13.267c3.919,3.487,2.663,12.778,11.805,10.641c3.947-0.922,8.155-0.835,12.252-0.964
		c2.73-0.086,5.522,0.65,8.198,0.312c3.61-0.457,7.144-1.55,10.691-2.45c4.224-1.072,8.742-1.6,12.558-3.512
		c4.761-2.386,10.036-5.122,13.086-9.203c3.833-5.129,8.087-7.044,13.901-6.589c4.327,0.338,8.616,1.135,12.936,1.597
		c1.47,0.157,3.006-0.284,4.47-0.104c3.784,0.466,7.591,1.814,11.305,1.563c7.503-0.507,14.949-1.851,22.422-2.825
		c1.459-0.19,3.438-0.946,4.31-0.291c3.741,2.813,7.017,6.24,10.735,9.088c3.616,2.769,7.34,5.594,11.436,7.488
		c3.989,1.846,8.458,2.808,12.813,3.684c6.042,1.215,12.185,1.918,18.263,2.972c4.39,0.76,9.997-1.402,12.246,4.865
		c0.059,0.164,1.046,0.271,1.177,0.094c4.859-6.602,9.532-13.345,14.54-19.83c2.776-3.596,6.103-6.766,9.176-10.134
		c0.279-0.306,0.468-0.708,0.779-0.969c2.64-2.215,5.018-4.995,8.033-6.438c2.813-1.345,6.407-0.941,9.485-1.874
		c5.646-1.712,10.838-2.014,15.472,2.461c0.45,0.434,2.273,0.29,2.696-0.219c5.546-6.682,11.061-13.398,16.333-20.297
		c1.478-1.932,2.374-4.414,3.09-6.779c0.389-1.284-0.065-2.869-0.308-4.289c-0.872-5.098-1.999-10.157-2.684-15.278
		c-0.721-5.393-0.084-11.172-1.82-16.164c-1.668-4.797-5.658-8.773-8.551-13.161c-5.088-7.719-5.534-16.439-5.4-25.296
		c0.086-5.728-0.013-11.457,0.049-17.186c0.063-5.946,0.216-11.893,0.338-17.838c0.094-4.558-0.162-9.16,0.399-13.66
		c0.655-5.244-2.989-11.46-7.599-11.814c-2.512-0.193-5.028-0.313-7.544-0.434c-15.182-0.726-30.366-1.392-45.544-2.18
		c-10.513-0.545-14.771,3.053-14.237,12.645c0.06,1.074,1.862,2.882,2.936,2.942c11.466,0.648,22.948,1.007,34.426,1.457
		c7.681,0.302,13.235,3.969,14.822,11.5c1.239,5.883,1.256,12.075,1.34,18.136c0.116,8.305,0.035,16.629-0.425,24.918
		c-0.524,9.478,0.988,17.564,8.646,24.566c3.643,3.329,5.357,9.508,6.428,14.709c1.204,5.842,0.012,12.161,1.077,18.053
		c2.109,11.671-5.571,26.356-16.988,29.717c-14.194,4.178-26.389,11.503-36.957,21.669c-10.104,9.72-21.373,11.519-33.074,4.075
		c-5.05-3.212-9.171-7.935-13.548-12.144c-8.888-8.547-19.543-2.986-29.346-3.618c-13.413-0.865-26.899-0.519-40.346-0.951
		c-6.457-0.208-13.557-2.967-19.18-1.065c-7.678,2.596-14.539,8.119-21.19,13.131c-12.998,9.795-26.475,9.494-37.626-2.248
		c-10.114-10.65-21.678-18.571-35.692-23.213c-9.539-3.159-16.56-16.914-14.848-26.878c1.143-6.653,1.186-13.546,2.839-20.048
		c1.511-5.937,3.827-11.932,7.079-17.086c3.132-4.963,10.464-8.357,11.496-13.36c3.061-14.841,4.218-30.109,5.523-45.262
		c0.63-7.323,0.642-14.862,8.429-18.119c4.031-1.687,8.988-1.513,13.533-1.549c11.106-0.087,22.214,0.223,33.322,0.255
		c0.687,0.002,1.814-0.904,1.984-1.578c0.557-2.203,0.845-4.484,1.076-6.753c0.122-1.189,0.258-2.572-0.21-3.595
		c-2.321-5.071-7.085-4.854-11.555-4.871C204.86,418.807,187.328,418.846,169.796,418.846z"/>
	<path fill-rule="evenodd" clip-rule="evenodd" d="M384.564,388.806c9.138,0,18.277-0.111,27.413,0.036
		c7.064,0.113,14.477-8.689,14.199-16.127c-0.44-11.805-7.284-20.708-12.84-30.196c-1.039-1.773-3.274-3.014-5.195-4.07
		c-6.667-3.667-1.054-7.887,0.465-10.184c4.633-7.012,11.655-12.587,15.587-19.885c4.747-8.813,8.665-18.566,10.455-28.366
		c2.887-15.813-1.449-30.828-9.797-44.568c-1.005-1.655-1.97-3.519-3.434-4.679c-8.659-6.855-6.633-17.867-10.548-26.542
		c-0.764-1.693-1.159-3.59-2.123-5.146c-3.244-5.236-3.854-8.881,1.957-13.87c11.796-10.126,13.843-29.802,5.606-42.152
		c-5.182-7.771-11.004-15.318-21.019-16.767c-8.802-1.274-17.324,0.507-24.765,5.719c-7.343,5.144-11.47,12.358-14.124,20.917
		c-0.84,2.706-4.923,6.112-7.649,6.23c-11.586,0.502-23.219-0.112-34.836-0.316c-3.656-0.064-7.461,0.5-10.933-0.332
		c-4.422-1.06-8.811-2.848-12.715-5.163c-1.353-0.802-1.226-4.113-1.76-6.282c-2.755-11.192-8.58-20.075-19.654-24.38
		c-9.063-3.523-18.345-4.225-27.282,0.697c-9.248,5.093-15.737,13.393-16.41,23.312c-0.789,11.634,0.363,23.868,9.693,33.28
		c0.898,0.906-0.451,4.531-1.353,6.639c-2.632,6.153-5.745,12.103-8.311,18.281c-1.397,3.363-1.675,7.215-3.23,10.479
		c-0.787,1.65-3.637,2.187-4.959,3.735c-5.142,6.018-11.593,11.537-14.761,18.512c-11.472,25.267-11.455,56.71,13.585,80.91
		c2.035,1.966,3.638,4.771,4.391,7.478c0.31,1.113-1.916,3.997-3.41,4.365c-6.904,1.705-10.943,6.523-14.547,12.018
		c-2.737,4.173-6.81,8.058-7.828,12.621c-1.279,5.731-1.207,12.354,0.402,17.987c1.908,6.681,7.91,10.651,14.976,11.032
		c8.035,0.432,16.124-0.198,24.189-0.258c1.551-0.012,3.104,0.477,4.657,0.735c-0.743,2.375-0.824,5.455-2.404,6.94
		c-1.802,1.695-4.94,2.732-7.498,2.733c-12.348,0.004-24.702-0.3-37.044-0.769c-8.016-0.304-16.028-0.943-24.004-1.781
		c-1.267-0.134-3.254-2.061-3.328-3.257c-0.213-3.445-0.408-7.249,0.809-10.357c3.618-9.245,7.673-18.342,12.019-27.272
		c3.794-7.8,8.556-15.135,12.255-22.976c3.313-7.022-1.016-12.86-4.189-18.78c-8.046-15.009-11.249-31.142-10.005-48.031
		c1.425-19.35,10.204-35.253,23.904-48.713c4.865-4.78,9.782-9.599,13.98-14.946c6.948-8.852,5.174-17.758,0.289-27.364
		c-9.834-19.338-5.806-41.315,10.619-55.414c6.071-5.211,14.221-8.547,21.955-11.168c21.985-7.45,42.385,6.216,51.42,21.399
		c3.531,5.933,5.185,13.374,12.898,15.604c3.525,1.019,7.305,1.501,10.983,1.583c7.763,0.172,16.018,1.489,23.138-0.699
		c4.928-1.514,8.58-7.874,12.302-12.473c8.284-10.237,18.243-17.521,31.437-20.063c18.151-3.497,32.573,2.984,43.373,17.112
		c6.955,9.098,8.308,19.949,4.888,31.112c-0.085,0.275-0.441,0.467-0.671,0.698c-0.127-0.217-0.317-0.421-0.367-0.655
		c-0.112-0.525-0.154-1.065-0.224-1.599c-0.075,0.288-0.214,0.577-0.213,0.865c0.006,1.356,0.169,2.725,0.04,4.065
		c-0.092,0.953-0.473,1.908-0.871,2.797c-4.074,9.105-8.295,18.149-12.178,27.335c-0.775,1.833-1.078,4.609-0.229,6.232
		c1.764,3.369,4.259,6.422,6.787,9.313c8.479,9.695,18.345,18.364,22.882,30.941c1.62,4.492,3.216,9.041,4.223,13.693
		c0.947,4.379,1.659,8.956,1.453,13.398c-0.212,4.585-1.675,9.109-2.55,13.668c-0.495,2.58-0.586,5.289-1.438,7.737
		c-0.994,2.853-2.585,5.505-3.98,8.211c-5.117,9.924-10.315,19.808-15.35,29.774c-1.025,2.03-1.488,4.348-2.169,6.546
		c-0.094,0.307,0.053,0.688,0.087,1.035c0.111-0.29,0.211-0.584,0.338-0.866c0.077-0.172,0.196-0.326,0.297-0.487
		c0.17,0.206,0.39,0.388,0.504,0.622c4.772,9.836,10.589,19.327,14.007,29.615c3.479,10.47,4.648,21.715,6.624,32.659
		c0.14,0.773-1.412,1.852-2.178,2.789c-0.5-0.693-1.009-1.38-1.496-2.083c-0.106-0.153-0.138-0.358-0.204-0.54
		c-0.074,0.212-0.209,0.424-0.214,0.638c-0.095,4.725-3.061,6.419-7.197,6.445c-12.794,0.081-25.591,0.111-38.385-0.021
		c-6.658-0.069-13.334-0.303-19.953-0.953c-1.687-0.166-3.936-1.896-4.59-3.464c-0.854-2.048-0.848-4.791-0.207-6.935
		c0.207-0.691,3.584-0.434,5.512-0.611C384.55,388.129,384.557,388.467,384.564,388.806z"/>
	<path fill-rule="evenodd" clip-rule="evenodd" d="M169.796,418.846c17.532,0,35.064-0.039,52.596,0.027
		c4.47,0.017,9.234-0.2,11.555,4.871c0.468,1.022,0.332,2.405,0.21,3.595c-0.231,2.269-0.52,4.55-1.076,6.753
		c-0.17,0.674-1.297,1.58-1.984,1.578c-11.108-0.032-22.216-0.342-33.322-0.255c-4.544,0.036-9.501-0.138-13.533,1.549
		c-7.788,3.257-7.799,10.796-8.429,18.119c-1.305,15.152-2.462,30.421-5.523,45.262c-1.032,5.003-8.364,8.397-11.496,13.36
		c-3.252,5.154-5.568,11.149-7.079,17.086c-1.654,6.502-1.696,13.395-2.839,20.048c-1.712,9.964,5.31,23.719,14.848,26.878
		c14.015,4.642,25.578,12.563,35.692,23.213c11.152,11.742,24.628,12.043,37.626,2.248c6.651-5.012,13.512-10.535,21.19-13.131
		c5.623-1.901,12.723,0.857,19.18,1.065c13.446,0.433,26.933,0.086,40.346,0.951c9.803,0.632,20.458-4.929,29.346,3.618
		c4.377,4.209,8.498,8.932,13.548,12.144c11.701,7.443,22.97,5.645,33.074-4.075c10.568-10.166,22.763-17.491,36.957-21.669
		c11.417-3.36,19.098-18.046,16.988-29.717c-1.065-5.892,0.127-12.211-1.077-18.053c-1.07-5.201-2.785-11.38-6.428-14.709
		c-7.658-7.002-9.171-15.089-8.646-24.566c0.46-8.289,0.541-16.613,0.425-24.918c-0.084-6.061-0.101-12.253-1.34-18.136
		c-1.587-7.531-7.142-11.198-14.822-11.5c-11.478-0.45-22.96-0.809-34.426-1.457c-1.073-0.061-2.876-1.868-2.936-2.942
		c-0.533-9.592,3.725-13.189,14.237-12.645c15.178,0.788,30.362,1.454,45.544,2.18c2.516,0.12,5.032,0.24,7.544,0.434
		c4.609,0.354,8.254,6.57,7.599,11.814c-0.562,4.5-0.306,9.103-0.399,13.66c-0.122,5.945-0.274,11.892-0.338,17.838
		c-0.062,5.729,0.037,11.458-0.049,17.186c-0.134,8.856,0.313,17.577,5.4,25.296c2.893,4.388,6.883,8.364,8.551,13.161
		c1.736,4.992,1.1,10.771,1.82,16.164c0.685,5.121,1.812,10.181,2.684,15.278c0.242,1.42,0.696,3.005,0.308,4.289
		c-0.716,2.365-1.612,4.848-3.09,6.779c-5.272,6.898-10.787,13.615-16.333,20.297c-0.423,0.509-2.246,0.652-2.696,0.219
		c-4.634-4.475-9.826-4.173-15.472-2.461c-3.078,0.933-6.672,0.529-9.485,1.874c-3.016,1.442-5.394,4.223-8.033,6.438
		c-0.312,0.261-0.5,0.663-0.779,0.969c-3.073,3.368-6.399,6.538-9.176,10.134c-5.008,6.485-9.681,13.229-14.54,19.83
		c-0.131,0.178-1.118,0.07-1.177-0.094c-2.249-6.268-7.856-4.105-12.246-4.865c-6.078-1.054-12.221-1.757-18.263-2.972
		c-4.354-0.876-8.823-1.838-12.813-3.684c-4.096-1.895-7.819-4.72-11.436-7.488c-3.719-2.848-6.994-6.275-10.735-9.088
		c-0.872-0.655-2.851,0.101-4.31,0.291c-7.473,0.975-14.919,2.318-22.422,2.825c-3.713,0.251-7.521-1.098-11.305-1.563
		c-1.463-0.181-3,0.261-4.47,0.104c-4.319-0.462-8.608-1.259-12.936-1.597c-5.813-0.455-10.068,1.46-13.901,6.589
		c-3.051,4.081-8.325,6.817-13.086,9.203c-3.815,1.912-8.334,2.439-12.558,3.512c-3.547,0.9-7.081,1.993-10.691,2.45
		c-2.675,0.339-5.468-0.397-8.198-0.312c-4.097,0.129-8.306,0.042-12.252,0.964c-9.142,2.138-7.886-7.153-11.805-10.641
		c-3.892-3.463-5.823-9.037-9.147-13.267c-1.801-2.292-4.521-4.084-7.164-5.445c-5.391-2.776-10.809-5.908-16.6-7.377
		c-4.806-1.218-10.286,0.381-15.223-0.557c-2.293-0.436-4.707-3.613-5.832-6.105c-2.202-4.876-4.656-10.08-4.948-15.264
		c-0.357-6.354,1.387-12.827,2.239-19.246c0.367-2.768,1.146-5.537,1.091-8.294c-0.139-6.898,2.924-14.883,9.839-21.031
		c7.576-6.737,10.15-15.199,10.822-24.789c0.205-2.929,1.414-5.776,1.777-8.709c0.292-2.353-0.228-4.802,0.015-7.166
		c0.594-5.789,1.5-11.547,2.117-17.334c0.287-2.688,0.015-5.437,0.313-8.123c0.774-6.981,1.876-13.93,2.555-20.92
		C159.506,419.265,160.036,418.846,169.796,418.846z"/>
</g>
</svg>
